<?xml version="1.0" standalone="no"?>
<!DOCTYPE svg PUBLIC "-//W3C//DTD SVG 20010904//EN"
 "http://www.w3.org/TR/2001/REC-SVG-20010904/DTD/svg10.dtd">
<svg version="1.0" xmlns="http://www.w3.org/2000/svg"
 width="256.000000pt" height="256.000000pt" viewBox="0 0 256.000000 256.000000"
 preserveAspectRatio="xMidYMid meet">
<metadata>
Created by potrace 1.16, written by Peter Selinger 2001-2019
</metadata>
<g transform="translate(0.000000,256.000000) scale(0.100000,-0.100000)"
fill="#000000" stroke="none">
<path d="M1090 1461 c0 -13 -69 -19 -75 -6 -6 12 3 -69 12 -103 5 -23 4 -23
-72 -20 l-77 3 -4 44 c-5 51 -24 70 -73 71 -31 0 -33 -2 -28 -27 3 -16 18 -93
34 -172 l28 -143 38 5 c21 3 41 8 45 11 3 4 1 29 -4 56 l-11 50 377 0 377 0
-11 -50 c-5 -27 -8 -52 -5 -54 3 -3 23 -8 45 -11 l39 -7 28 140 c15 77 27 144
26 149 -1 4 0 10 1 13 1 3 3 14 4 26 2 19 -1 20 -35 14 -25 -5 -40 -3 -42 4
-4 11 -27 -83 -27 -109 0 -12 -16 -15 -76 -15 -67 0 -75 2 -70 18 7 25 17 119
11 106 -7 -13 -67 -5 -78 10 -6 7 -7 5 -4 -6 3 -9 3 -19 -1 -22 -3 -4 -7 -14
-8 -24 -13 -85 -10 -82 -72 -82 l-57 0 3 60 4 60 -52 0 -52 0 4 -60 3 -60 -56
0 c-61 0 -69 8 -69 72 0 15 -4 29 -10 33 -5 3 -7 12 -3 20 3 8 2 15 -1 15 -3
0 -6 -4 -6 -9z"/>
<path d="M180 1449 c0 -3 -13 -19 -30 -35 -16 -16 -30 -35 -30 -41 0 -7 -4
-13 -9 -13 -8 0 -24 -41 -26 -67 0 -6 -4 -15 -8 -19 -13 -14 -7 -91 12 -148
23 -63 44 -99 55 -89 4 4 4 1 1 -8 -6 -15 65 -90 98 -102 25 -9 21 2 -5 13
-19 7 -12 9 32 11 30 1 62 2 70 1 9 0 5 7 -10 18 -14 10 -26 17 -28 15 -2 -2
-19 14 -39 36 -19 21 -40 36 -47 32 -6 -3 -8 -3 -4 1 3 4 -5 31 -18 59 -18 40
-24 69 -24 125 0 41 4 72 10 72 6 0 10 6 10 13 0 21 51 69 97 89 86 38 190 24
288 -40 75 -49 122 -152 112 -247 -5 -46 -2 -56 17 -74 12 -12 26 -21 30 -21
4 0 23 -12 42 -26 19 -15 34 -22 34 -18 0 5 5 2 10 -6 9 -15 13 -16 48 -19 15
-1 15 -3 2 -12 -12 -9 -12 -10 3 -5 10 3 43 6 73 6 30 0 54 3 54 8 0 4 -49 39
-109 77 l-109 70 -4 65 c-5 62 -43 170 -60 170 -5 0 -8 5 -8 11 0 6 -14 25
-32 42 -18 18 -28 25 -24 17 5 -8 -3 -3 -16 12 l-25 27 -216 3 c-120 2 -217 0
-217 -3z"/>
<path d="M1943 1453 c-7 -3 -13 -11 -13 -19 0 -8 -3 -13 -7 -11 -5 1 -8 -1 -8
-4 0 -12 -38 -49 -50 -49 -25 0 -77 -127 -83 -198 l-4 -67 -71 -45 c-39 -25
-82 -55 -95 -67 -13 -13 -28 -21 -32 -18 -4 3 -13 -2 -20 -10 -11 -13 -4 -15
53 -15 36 0 69 5 72 10 3 6 17 10 30 10 13 0 30 6 37 13 7 7 20 16 28 19 8 3
34 20 57 37 42 30 42 32 36 76 -8 61 14 156 44 191 60 71 74 84 88 84 8 0 15
4 15 8 0 4 10 8 22 9 11 1 24 7 28 14 4 6 13 8 19 5 6 -4 11 -3 11 1 0 13 150
5 166 -8 7 -6 19 -7 25 -3 8 5 9 3 4 -6 -6 -10 -4 -12 8 -7 10 4 17 1 17 -6 0
-14 41 -53 51 -50 4 1 5 -6 2 -16 -3 -10 0 -22 6 -25 19 -12 13 -136 -10 -185
-17 -39 -113 -154 -121 -146 -2 2 -9 -3 -16 -11 -11 -12 -2 -14 57 -14 63 0
72 2 88 25 10 14 30 39 45 56 43 49 61 118 55 202 -7 85 -16 127 -28 127 -5 0
-9 7 -9 15 0 8 -4 15 -9 15 -5 0 -11 9 -14 21 -3 12 -10 18 -16 14 -6 -3 -11
0 -11 9 0 12 -31 15 -211 15 -115 0 -213 2 -217 4 -4 3 -13 2 -19 0z"/>
</g>
</svg>
